<?xml version="1.0" encoding="UTF-8" standalone="no"?>
<!-- Created with Inkscape (http://www.inkscape.org/) -->

<svg
   xmlns:dc="http://purl.org/dc/elements/1.1/"
   xmlns:cc="http://creativecommons.org/ns#"
   xmlns:rdf="http://www.w3.org/1999/02/22-rdf-syntax-ns#"
   xmlns:svg="http://www.w3.org/2000/svg"
   xmlns="http://www.w3.org/2000/svg"
   xmlns:sodipodi="http://sodipodi.sourceforge.net/DTD/sodipodi-0.dtd"
   xmlns:inkscape="http://www.inkscape.org/namespaces/inkscape"
   width="90pt"
   height="90pt"
   viewBox="0 0 31.750001 31.750001"
   version="1.1"
   id="svg8"
   inkscape:version="0.92.2 5c3e80d, 2017-08-06"
   sodipodi:docname="platformbreakable.svg">
  <defs
     id="defs2" />
  <sodipodi:namedview
     id="base"
     pagecolor="#ffffff"
     bordercolor="#666666"
     borderopacity="1.0"
     inkscape:pageopacity="0.0"
     inkscape:pageshadow="2"
     inkscape:zoom="3.959798"
     inkscape:cx="34.524815"
     inkscape:cy="58.9375"
     inkscape:document-units="mm"
     inkscape:current-layer="layer1"
     showgrid="false"
     units="pt"
     inkscape:window-width="1440"
     inkscape:window-height="810"
     inkscape:window-x="0"
     inkscape:window-y="0"
     inkscape:window-maximized="1" />
  <metadata
     id="metadata5">
    <rdf:RDF>
      <cc:Work
         rdf:about="">
        <dc:format>image/svg+xml</dc:format>
        <dc:type
           rdf:resource="http://purl.org/dc/dcmitype/StillImage" />
        <dc:title></dc:title>
      </cc:Work>
    </rdf:RDF>
  </metadata>
  <g
     inkscape:label="Layer 1"
     inkscape:groupmode="layer"
     id="layer1"
     transform="translate(0,-265.24999)">
    <rect
       style="fill:#ac9d93;stroke-width:0.32768527"
       id="rect30"
       width="28.222221"
       height="21.166666"
       x="1.7638893"
       y="269.48334" />
    <rect
       style="fill:#6c5d53;stroke-width:0.22875015"
       id="rect50"
       width="24.694445"
       height="2.8222222"
       x="3.5277777"
       y="290.64999" />
    <path
       style="fill:none;stroke:#000000;stroke-width:0.26458332px;stroke-linecap:butt;stroke-linejoin:miter;stroke-opacity:1"
       d="m 1.7638893,269.48334 c 0.1247556,0.48596 0.2092065,0.98408 0.3742669,1.45787 0.014655,0.0421 0.097999,-0.0267 0.1336347,0 0.1591328,0.0414 0.099041,0.25296 0.2004522,0.33409 0.077779,0.0622 0.1916435,0.0688 0.2672696,0.13363 0.084552,0.0725 0.121707,0.18853 0.2004521,0.26727 0.1008427,0.10085 0.2237102,0.17696 0.334087,0.26727 0.1346324,0.11016 0.2602216,0.23177 0.4009043,0.33409 0.10503,0.0764 0.2290564,0.12407 0.3340867,0.20045 0.1406824,0.10232 0.2662719,0.22393 0.4009044,0.33409 0.1103767,0.0903 0.2215147,0.17971 0.3340869,0.26727 0.1331265,0.10354 0.4982044,0.36457 0.6013564,0.46772 0.015748,0.0157 -0.015748,0.0511 0,0.0668 0.078745,0.0787 0.1766504,0.13572 0.2672694,0.20045 0.065347,0.0467 0.1436685,0.0768 0.2004523,0.13363 0.035216,0.0352 0.031602,0.0984 0.066817,0.13364 0.015748,0.0157 0.048286,-0.0124 0.066817,0 0.052416,0.0349 0.08909,0.0891 0.1336347,0.13363 0.022273,0.0223 -0.08909,-0.0891 -0.066817,-0.0668 0.044545,0.0445 0.08909,0.0891 0.133635,0.13363 0.022273,0.0223 -0.035319,-0.0668 -0.066818,-0.0668 -0.049803,0 0.017015,0.13364 0.066818,0.13364 0.063668,0 0.2312085,-0.10288 0.2672694,-0.0668 0.1583351,0.15834 0.063623,0.21636 0.2672696,0.26727 0.043215,0.0108 0.096571,-0.0247 0.1336347,0 0.041438,0.0276 0.031602,0.0984 0.066817,0.13363 0.035216,0.0352 0.094746,0.0357 0.1336347,0.0668 0.2962056,0.23697 0.1048126,0.19353 0.4677217,0.40091 0.061152,0.0349 0.1454544,0.0228 0.2004523,0.0668 0.062707,0.0502 0.071943,0.14905 0.1336347,0.20046 0.076519,0.0638 0.1828043,0.0808 0.2672696,0.13363 0.094435,0.059 0.1746105,0.13868 0.2672694,0.20045 0.041438,0.0276 0.1037532,0.027 0.1336347,0.0668 0.042259,0.0564 0.017015,0.15065 0.066817,0.20045 0.031498,0.0315 0.093793,-0.0199 0.1336349,0 0.056345,0.0282 0.084443,0.0943 0.1336347,0.13364 0.062707,0.0502 0.137745,0.0835 0.200452,0.13363 0.073788,0.059 0.1218285,0.14804 0.2004523,0.20045 0.1581777,0.10546 0.1684388,0.0348 0.334087,0.20046 0.1419048,0.1419 -0.4171169,0.0169 0.1336347,0.20045 0.029882,0.01 0.044545,-0.0891 0.066817,-0.0668 0.049803,0.0498 0.00822,0.16138 0.066817,0.20045 0.041438,0.0276 0.086388,-0.0826 0.1336347,-0.0668 0.047247,0.0157 0.051068,0.0864 0.066817,0.13363 0.007,0.0211 -0.02227,0.0668 0,0.0668 0.0498,0 0.08383,-0.0668 0.133635,-0.0668 0.0315,0 -0.05273,0.0386 -0.06682,0.0668 -0.06311,0.12621 0.103938,0.0371 0.133634,0.0668 0.02227,0.0223 -0.06682,0.0353 -0.06682,0.0668 0,0.0315 0.03532,0.0668 0.06682,0.0668 0.0315,0 0.04061,-0.0843 0.06682,-0.0668 0.06682,0.0446 0.07685,0.14367 0.133634,0.20045 0.03522,0.0352 0.09842,0.0316 0.133635,0.0668 0.03522,0.0352 0.02538,0.10601 0.06682,0.13364 0.03706,0.0247 0.09544,-0.0229 0.133634,0 0.08103,0.0486 0.115934,0.15819 0.200452,0.20045 0.02817,0.0141 0.03865,-0.0809 0.06682,-0.0668 0.04455,0.0223 0.04455,0.0891 0.06682,0.13364 0.06682,0.0445 0.124269,0.10824 0.200452,0.13363 0.06339,0.0211 0.13563,-0.0162 0.200452,0 0.0769,0.0192 0.09246,0.16958 0.133635,0.20045 0.05635,0.0423 0.131388,0.053 0.200452,0.0668 0.04368,0.009 0.102137,-0.0315 0.133635,0 0.02227,0.0223 -0.06682,0.0353 -0.06682,0.0668 0,0.0315 0.03532,0.0668 0.06682,0.0668 0.0498,0 0.08383,-0.0668 0.133635,-0.0668 0.0315,0 -0.08909,0.0445 -0.06682,0.0668 0.0315,0.0315 0.102136,-0.0315 0.133634,0 0.02227,0.0223 -0.03532,0.0668 -0.06682,0.0668 -0.02227,0 -0.01992,-0.0568 0,-0.0668 0.03984,-0.0199 0.08909,0 0.133635,0 0.02227,0 -0.06682,0.0223 -0.06682,0 0,-0.0223 0.04455,0 0.06682,0 0.04454,0 0.08909,0 0.133634,0 0.02227,0 -0.06682,0.0223 -0.06682,0 0,-0.0223 0.04455,0 0.06682,0 0.04455,0 0.08909,0 0.133635,0 0.04455,0 0.09379,-0.0199 0.133635,0 0.01992,0.01 -0.01,0.0469 0,0.0668 0.110803,0.22161 0.04685,0 0.06682,0 0.02227,0 -0.01575,0.0511 0,0.0668 0.01575,0.0158 0.04454,0 0.06682,0"
       id="path116"
       inkscape:connector-curvature="0" />
    <path
       style="fill:none;stroke:#000000;stroke-width:0.26458332px;stroke-linecap:butt;stroke-linejoin:miter;stroke-opacity:1"
       d="m 8.41899,275.61843 c 1.4699824,0 2.939965,0 4.409947,0 0.02227,0 0.05107,0.0158 0.06682,0 0.02166,-0.0217 -0.0212,-0.29168 0,-0.33409 0.01409,-0.0282 0.05273,-0.0386 0.06682,-0.0668 0,-0.0223 0,-0.0445 0,-0.0668 0,-0.0223 -0.01,-0.0469 0,-0.0668 0.01409,-0.0282 0.03532,-0.0668 0.06682,-0.0668 0.02227,0 0.02227,0.0668 0,0.0668 -0.02227,0 0,-0.0446 0,-0.0668 0,-0.0223 -0.02227,-0.0668 0,-0.0668 0.02227,0 -0.02227,0.0668 0,0.0668 0.0315,0 0.05273,-0.0386 0.06682,-0.0668 0.01,-0.0199 -0.02227,-0.0668 0,-0.0668 0.02227,0 0.02227,0.0668 0,0.0668 -0.02227,0 0,-0.0445 0,-0.0668 0,-0.0223 -0.02227,-0.0668 0,-0.0668 0.02227,0 0,0.0445 0,0.0668"
       id="path118"
       inkscape:connector-curvature="0" />
    <path
       style="fill:none;stroke:#000000;stroke-width:0.26458332px;stroke-linecap:butt;stroke-linejoin:miter;stroke-opacity:1"
       d="m 1.8708867,281.76563 c 0.1113623,0 0.2344814,-0.0498 0.3340869,0 0.062996,0.0315 0.00821,0.16138 0.066817,0.20045 0.094494,0.063 0.2303075,0.0207 0.334087,0.0668 0.1017642,0.0452 0.1705799,0.1452 0.2672695,0.20045 0.061152,0.0349 0.1357151,0.0391 0.2004521,0.0668 0.091552,0.0392 0.1807879,0.0842 0.2672696,0.13363 0.2530681,0.14461 0.4722513,0.33635 0.7349911,0.46772 0.1072784,0.0536 0.2217827,0.0915 0.334087,0.13364 0.065947,0.0247 0.1393002,0.0319 0.200452,0.0668 0.09669,0.0553 0.1655056,0.15523 0.2672696,0.20046 0.1037794,0.0461 0.2263471,0.0309 0.334087,0.0668 0.258722,0.0862 0.3444558,0.21991 0.6013564,0.33409 0.083917,0.0373 0.1828628,0.0306 0.2672694,0.0668 0.073812,0.0316 0.1258914,0.10381 0.2004523,0.13363 0.041359,0.0165 0.092276,-0.0165 0.1336347,0 0.074561,0.0298 0.1286256,0.0977 0.2004523,0.13364 0.062996,0.0315 0.1350578,0.0407 0.200452,0.0668 0.046241,0.0185 0.087394,0.0483 0.1336347,0.0668 0.065394,0.0262 0.1418495,0.0278 0.2004523,0.0668 0.018531,0.0124 0,0.0445 0,0.0668 0.044545,0.0223 0.086387,0.0511 0.1336347,0.0668 0.05228,0.0174 0.1336347,-0.028 0.1336347,0 0,0.0498 -0.1020332,0.0984 -0.066817,0.13364 0.035216,0.0352 0.098419,-0.0316 0.1336347,-0.0668 0.015748,-0.0157 -0.066817,-0.0223 -0.066817,0 0,0.0315 0.038645,0.0527 0.066817,0.0668 0.01992,0.01 0.066817,-0.0223 0.066817,0 0,0.0223 -0.082567,-0.0157 -0.066817,0 0.035216,0.0352 0.083832,0.0668 0.133635,0.0668 0.1912265,0 -0.041515,-0.1252 0.1336347,-0.0668 0.047247,0.0158 0.1113623,0.0223 0.1336346,0.0668 0.014087,0.0282 -0.098315,0.0668 -0.066817,0.0668 0.049803,0 0.086388,-0.0511 0.1336347,-0.0668 0.094019,-0.0313 0.057144,0.0286 0.1336349,0.0668 0.066817,0.0334 0.1336347,-0.0668 0.2004521,0 0.022273,0.0223 -0.08909,0.0445 -0.066817,0.0668 0.062996,0.063 0.2042734,-0.063 0.2672694,0 0.031498,0.0315 0,0.0891 0,0.13364 0,0.0223 -0.01992,-0.0569 0,-0.0668 0.039842,-0.0199 0.096571,-0.0247 0.133635,0 0.041438,0.0276 0.022273,0.11136 0.066817,0.13363 0.028173,0.0141 0.066817,-0.0353 0.066817,-0.0668 0,-0.0223 -0.08909,0 -0.066817,0 0.08909,0 0.1793917,0.0146 0.2672694,0 0.063271,-0.0105 0.3214711,-0.18784 0.334087,-0.20046 0.035216,-0.0352 0.024112,-0.10801 0.066817,-0.13363 0.078745,-0.0472 0.1851327,-0.0257 0.2672697,-0.0668 0.01992,-0.01 0,-0.0445 0,-0.0668 0.044545,-0.0445 0.071862,-0.12128 0.1336347,-0.13363 0.069064,-0.0138 0.1350578,0.093 0.200452,0.0668 0.074561,-0.0298 0.076851,-0.14367 0.1336351,-0.20045 0.03521,-0.0352 0.09842,-0.0316 0.133634,-0.0668 0.01575,-0.0158 -0.02227,-0.0668 0,-0.0668 0.07043,0 0.132124,0.0839 0.200452,0.0668 0.04832,-0.0121 0.0316,-0.0984 0.06682,-0.13364 0.03522,-0.0352 0.08909,-0.0445 0.133635,-0.0668 0.04454,-0.0223 0.08383,-0.0668 0.133634,-0.0668 0.02227,0 -0.02113,0.0739 0,0.0668 0.202697,-0.0676 0.173699,-0.20046 0.400905,-0.20046 0.0498,0 0.08383,0.0668 0.133634,0.0668 0.07043,0 0.132124,-0.0497 0.200452,-0.0668 0.02161,-0.005 0.04454,0 0.06682,0 0.08909,0 0.17818,0 0.267269,0 0.02227,0 0.04454,0 0.06682,0 0.02227,0 0.06682,-0.0223 0.06682,0 0,0.0223 -0.08257,-0.0157 -0.06682,0 0.03522,0.0352 0.08532,0.0547 0.133635,0.0668 0.04322,0.0108 0.113713,-0.0398 0.133634,0 0.02227,0.0446 -0.08909,0.0891 -0.06682,0.13364 0.01992,0.0398 0.09042,-0.0108 0.133635,0 0.107871,0.027 0.132531,0.0657 0.200452,0.13363 0.02227,0.0223 0.03694,0.0569 0.06682,0.0668 0.04226,0.0141 0.102137,-0.0315 0.133635,0 0.02227,0.0223 -0.0809,0.0386 -0.06682,0.0668 0.311814,0.62362 0.103938,0.13363 0.267269,0.13363 0.0315,0 0.04792,0.0416 0.06682,0.0668 0.04818,0.0642 0.07685,0.14367 0.133635,0.20045 0.03522,0.0352 0.09842,0.0316 0.133635,0.0668 0.01575,0.0157 -0.04454,0 -0.06682,0 0.06682,0.0668 0.126664,0.14142 0.200452,0.20045 0.03889,0.0311 0.103753,0.027 0.133634,0.0668 0.04226,0.0563 0.02775,0.14185 0.06682,0.20045 0.02471,0.0371 0.102137,-0.0315 0.133635,0 0.03522,0.0352 0.06682,0.0838 0.06682,0.13363 0,0.0223 -0.08909,0 -0.06682,0 0.04454,0 0.09657,-0.0247 0.133634,0 0.04144,0.0276 0.06682,0.0838 0.06682,0.13364 0,0.0223 -0.08909,0 -0.06682,0 0.04455,0 0.08909,0 0.133635,0 0.02227,0 -0.07678,-0.0199 -0.06682,0 0.02817,0.0563 0.08909,0.0891 0.133635,0.13363 0.02227,0.0223 -0.03532,-0.0668 -0.06682,-0.0668 -0.02227,0 -0.01575,0.0511 0,0.0668 0.0315,0.0315 0.133635,-0.0445 0.133635,0 0,0.0223 -0.06682,-0.0223 -0.06682,0 0.07678,0.15356 0.06682,0.18344 0.06682,0.0668"
       id="path120"
       inkscape:connector-curvature="0" />
    <path
       style="fill:none;stroke:#000000;stroke-width:0.26458332px;stroke-linecap:butt;stroke-linejoin:miter;stroke-opacity:1"
       d="m 20.780205,269.60486 c -0.04109,1.03328 0.07273,-0.22999 -0.06682,0.46773 -0.0073,0.0365 0.0081,0.25517 0,0.26726 -0.02762,0.0414 -0.115138,0.0206 -0.133635,0.0668 -0.375063,0.93766 0.408215,-0.41552 -0.06682,0.53454 -0.07183,0.14365 -0.207621,0.25178 -0.26727,0.40091 -0.03309,0.0827 0,0.17818 0,0.26726 -0.06682,0.13364 -0.123582,0.27279 -0.200452,0.40091 -0.05729,0.0955 -0.14637,0.16992 -0.200452,0.26727 -0.05825,0.10485 -0.08,0.22681 -0.133635,0.33409 -0.05808,0.11615 -0.136018,0.22132 -0.200452,0.33408 -0.0917,0.16048 -0.149137,0.32006 -0.267269,0.46772 -0.03935,0.0492 -0.09584,0.0832 -0.133635,0.13364 -0.02988,0.0398 -0.03919,0.0922 -0.06682,0.13363 -0.01747,0.0262 -0.04935,0.0406 -0.06682,0.0668 -0.02763,0.0414 -0.02538,0.10601 -0.06682,0.13364 -0.03706,0.0247 -0.113714,-0.0398 -0.133635,0 -0.02227,0.0445 0.09444,0.0922 0.06682,0.13363 -0.03907,0.0586 -0.14185,0.0277 -0.200453,0.0668 -0.01853,0.0123 0.01,0.0469 0,0.0668 -0.139039,0.27807 -0.02689,-0.0399 -0.06682,0 -0.03522,0.0352 -0.06682,0.0838 -0.06682,0.13363 0,0.0315 0.06682,-0.0983 0.06682,-0.0668 0,0.0498 -0.0316,0.0984 -0.06682,0.13364 -0.01575,0.0157 -0.01575,-0.0511 0,-0.0668 0.01575,-0.0158 0.0454,0.006 0.06682,0 0.135444,-0.0387 0.26901,-0.0842 0.400904,-0.13363 0.04663,-0.0175 0.08383,-0.0668 0.133635,-0.0668 0.0498,0 0.08451,0.075 0.133635,0.0668 0.757263,-0.37864 -0.04454,-0.0668 0.400904,-0.0668 0.0498,0 0.08639,-0.0511 0.133635,-0.0668 0.02113,-0.007 0.0469,0.01 0.06682,0 0.02817,-0.0141 0.03532,-0.0668 0.06682,-0.0668 0.0315,0 0.03693,0.0569 0.06682,0.0668 0.04226,0.0141 0.08909,0 0.133635,0 0.02227,0 -0.06682,0.0223 -0.06682,0 0,-0.0223 0.04454,0 0.06682,0 0.06682,0 0.133634,0 0.200452,0 0.02227,0 -0.08909,0 -0.06682,0 0.04454,0 0.08909,0 0.133635,0 0.04454,0 0.09138,-0.0141 0.133635,0 0.02988,0.01 0.04162,0.0479 0.06682,0.0668 0.06424,0.0482 0.131592,0.0923 0.200452,0.13363 0.04271,0.0256 0.09842,0.0316 0.133635,0.0668 0.01575,0.0157 -0.02068,0.0585 0,0.0668 0.105445,0.0422 0.232509,0.016 0.334087,0.0668 0.04454,0.0223 0.03694,0.0938 0.06682,0.13364 0.0378,0.0504 0.08909,0.0891 0.133634,0.13363 0.04454,0.0446 0.08444,0.0943 0.133635,0.13364 0.06271,0.0502 0.136209,0.0854 0.200452,0.13363 0.04781,0.0359 0.249203,0.24318 0.26727,0.26727 0.02988,0.0399 0.02227,0.11137 0.06682,0.13364 0.05976,0.0299 0.140689,-0.0299 0.200452,0 0.02817,0.0141 -0.05273,0.0386 -0.06682,0.0668 -0.01,0.0199 -0.01,0.0469 0,0.0668 0.01409,0.0282 0.03532,0.0668 0.06682,0.0668 0.02227,0 0,-0.0891 0,-0.0668 0,0.0446 -0.01992,0.0938 0,0.13364 0.08909,0.17818 0.06682,-0.20045 0.06682,0.0668 0,0.1567 -0.01575,-0.0315 0.06682,0.13364 0.0089,0.0178 0,0.37068 0,0.4009 0,0.0445 0,0.0891 0,0.13364 0,0.0223 0.01992,0.0569 0,0.0668 -0.03984,0.0199 -0.102137,-0.0315 -0.133635,0 -0.02227,0.0223 0.0809,0.0386 0.06682,0.0668 -0.02227,0.0446 -0.0922,0.0392 -0.133635,0.0668 -0.02621,0.0175 -0.03532,0.0668 -0.06682,0.0668 -0.0315,0 -0.03532,-0.0668 -0.06682,-0.0668 -0.02227,0 0.02113,0.0598 0,0.0668 -0.06339,0.0211 -0.133635,0 -0.200452,0 -0.04454,0 -0.08909,0 -0.133635,0 -0.178179,0 -0.356359,0 -0.534539,0 -0.06023,0 -0.292032,0.014 -0.334087,0 -0.08512,-0.0284 -0.162862,-0.11902 -0.267269,-0.0668 -0.221126,0.11056 -0.102292,0.27966 -0.133635,0.46772 -0.01158,0.0695 -0.04747,0.13273 -0.06682,0.20045 -0.02523,0.0883 -0.03778,0.18016 -0.06682,0.26727 -0.06451,0.19354 -0.09888,0.0908 -0.133635,0.33409 -0.0126,0.0882 0.01933,0.1803 0,0.26727 -0.02602,0.11709 -0.104544,0.21773 -0.133634,0.33409 -0.01621,0.0648 0.01836,0.1362 0,0.20045 -0.02736,0.0958 -0.106271,0.1715 -0.133635,0.26727 -0.01836,0.0643 0.0094,0.13431 0,0.20045 0.0063,0.16919 -0.106978,0.30778 -0.133635,0.46772 -0.01098,0.0659 0.01621,0.13563 0,0.20046 -0.0076,0.0306 -0.05512,0.0376 -0.06682,0.0668 -0.08563,0.21409 -0.03645,0.27335 -0.133635,0.46772 -0.01409,0.0282 -0.05273,0.0387 -0.06682,0.0668 -0.07251,0.14503 -0.06112,0.3227 -0.133635,0.46772 -0.01,0.0199 -0.04829,-0.0123 -0.06682,0 -0.05242,0.035 -0.08909,0.0891 -0.133635,0.13364 -0.02227,0.0223 -0.05918,0.0363 -0.06682,0.0668 -0.05985,0.23939 0.103674,0.17588 -0.133634,0.33408 -0.03706,0.0247 -0.113714,-0.0398 -0.133635,0 -0.01992,0.0398 0.01409,0.0914 0,0.13364 -0.01,0.0299 -0.03532,0.0668 -0.06682,0.0668 -0.02227,0 0.01575,-0.0826 0,-0.0668 -0.03522,0.0352 -0.03919,0.0922 -0.06682,0.13363 -0.03494,0.0524 -0.105462,0.0773 -0.133635,0.13364 -0.01,0.0199 0.02227,0.0668 0,0.0668 -0.0315,0 -0.04454,-0.0891 -0.06682,-0.0668 -0.0315,0.0315 0.01992,0.0938 0,0.13363 -0.01,0.0199 -0.05107,-0.0158 -0.06682,0 -0.03993,0.0399 0.07222,0.13364 -0.06682,0.13364 -0.02227,0 0,-0.0891 0,-0.0668 0,0.0445 0.0315,0.10214 0,0.13363 -0.02227,0.0223 -0.03532,-0.0668 -0.06682,-0.0668 -0.04455,0 0.04454,0.13363 0,0.13363 -0.02227,0 0,-0.0445 0,-0.0668"
       id="path122"
       inkscape:connector-curvature="0" />
    <path
       style="fill:none;stroke:#000000;stroke-width:0.26458332px;stroke-linecap:butt;stroke-linejoin:miter;stroke-opacity:1"
       d="m 29.86737,277.35568 c -0.141039,0.0772 -0.322966,-0.0579 -0.467722,0 -0.05849,0.0234 -0.0715,0.12328 -0.133636,0.13363 -0.09058,0.0151 -0.176686,-0.0819 -0.267269,-0.0668 -0.06214,0.0103 -0.07306,0.11633 -0.133633,0.13363 -0.10708,0.0306 -0.224523,-0.0199 -0.334089,0 -0.138592,0.0252 -0.261679,0.11222 -0.400902,0.13364 -0.154096,0.0237 -0.313936,-0.0256 -0.467723,0 -0.118308,0.0197 -0.216477,0.11011 -0.334087,0.13363 -0.2184,0.0437 -0.452098,-0.054 -0.668173,0 -0.07791,0.0195 -0.12124,0.12043 -0.200454,0.13364 -0.06947,0.0116 -0.133634,-0.0446 -0.200451,-0.0668 -0.111362,0 -0.22605,-0.027 -0.334087,0 -0.07791,0.0195 -0.121707,0.11788 -0.200452,0.13363 -0.04884,0.01 -0.08532,-0.0789 -0.133635,-0.0668 -0.06112,0.0153 -0.07252,0.11835 -0.133635,0.13363 -0.04832,0.0121 -0.08639,-0.0826 -0.133634,-0.0668 -0.04725,0.0158 -0.02227,0.11137 -0.06682,0.13364 -0.152747,0.0764 0.04154,-0.36299 -0.200452,0 -0.02471,0.0371 0,0.0891 0,0.13363 0,0.0223 0.01992,-0.0768 0,-0.0668 -0.05635,0.0282 -0.08909,0.0891 -0.133635,0.13363 -0.02227,0.0223 0.05273,-0.095 0.06682,-0.0668 0.0016,0.003 0.01226,0.36413 0,0.40091 -0.0315,0.0945 -0.08909,0.17818 -0.133635,0.26727 -0.04454,0.11136 -0.09917,0.2192 -0.133635,0.33408 -0.03263,0.10878 -0.0309,0.22635 -0.06682,0.33409 -0.101832,0.30549 -0.05305,-0.28305 -0.133635,0.20045 -0.01465,0.0879 0.01747,0.17991 0,0.26727 -0.0062,0.0309 -0.05512,0.0376 -0.06682,0.0668 -0.03411,0.0853 -0.03778,0.18015 -0.06682,0.26727 -0.0315,0.0945 -0.102137,0.17277 -0.133635,0.26727 -0.02904,0.0871 -0.03271,0.182 -0.06682,0.26727 -0.0117,0.0292 -0.05686,0.0369 -0.06682,0.0668 -0.03591,0.10774 -0.02208,0.2297 -0.06682,0.33408 -0.02482,0.0579 -0.08909,0.0891 -0.133635,0.13364 -0.02227,0.0223 -0.05686,0.0369 -0.06682,0.0668 -0.03591,0.10774 -0.05076,0.22167 -0.06682,0.33409 -0.0063,0.0441 0.01654,0.0923 0,0.13364 -0.05965,0.14912 -0.207621,0.25178 -0.26727,0.4009 -0.04128,0.1032 0.05998,0.31093 0,0.4009 -0.02471,0.0371 -0.113714,-0.0398 -0.133635,0 -0.02227,0.0446 0.0789,0.0853 0.06682,0.13364 -0.01528,0.0611 -0.08909,0.0891 -0.133635,0.13363 -0.02227,0.0223 0.04454,-0.0445 0.06682,-0.0668 0,0.0445 0.02471,0.0966 0,0.13363 -0.02763,0.0414 -0.117885,0.0196 -0.133634,0.0668 -0.01575,0.0473 0.06682,0.0838 0.06682,0.13363 0,0.0223 -0.05107,-0.0157 -0.06682,0 -0.01575,0.0158 0,0.0446 0,0.0668 0,0.17818 0.04454,0.13364 -0.133635,0.13364 -0.02227,0 0.05107,-0.0158 0.06682,0 0.01575,0.0157 0,0.0445 0,0.0668 0,0.0223 0.02227,0.0668 0,0.0668 -0.0315,0 -0.03864,-0.0527 -0.06682,-0.0668 -0.01992,-0.01 -0.06682,-0.0223 -0.06682,0 0,0.0498 0.06682,0.0838 0.06682,0.13364 0,0.0223 -0.0469,-0.01 -0.06682,0 -0.02817,0.0141 -0.04934,0.0406 -0.06682,0.0668 -0.02227,0.0445 -0.04454,0.0891 -0.06682,0.13363 0.02227,0 0.06682,-0.0223 0.06682,0 0,0.0498 -0.0316,0.0984 -0.06682,0.13364 -0.01575,0.0157 0.01575,-0.0511 0,-0.0668 -0.01575,-0.0158 -0.05686,-0.0199 -0.06682,0 -0.01992,0.0398 0,0.0891 0,0.13363 0,0.0223 0.01575,-0.0511 0,-0.0668 -0.01575,-0.0158 -0.06682,-0.0223 -0.06682,0 0,0.0826 0.156698,0.0668 0,0.0668 -0.155907,0 -0.311815,0 -0.467722,0 -0.06682,0 -0.140689,-0.0299 -0.200452,0 -0.01992,0.01 0.02227,0.0668 0,0.0668 -0.0315,0 -0.03864,-0.0527 -0.06682,-0.0668 -0.01992,-0.01 -0.06682,0.0223 -0.06682,0 0,-0.0223 0.04454,0 0.06682,0"
       id="path124"
       inkscape:connector-curvature="0" />
  </g>
</svg>
